<?xml version="1.0" encoding="utf-8"?>
<!-- Generator: Adobe Illustrator 16.0.0, SVG Export Plug-In . SVG Version: 6.00 Build 0)  -->
<!DOCTYPE svg PUBLIC "-//W3C//DTD SVG 1.1//EN" "http://www.w3.org/Graphics/SVG/1.1/DTD/svg11.dtd">
<svg version="1.1" id="Layer_1" xmlns="http://www.w3.org/2000/svg" xmlns:xlink="http://www.w3.org/1999/xlink" x="0px" y="0px"
	 width="167.625px" height="40.805px" viewBox="0 0 167.625 40.805" enable-background="new 0 0 167.625 40.805"
	 xml:space="preserve">
<g>
	<path fill="#FFFFFF" d="M11.531,29.18c0,1.344-0.563,2.496-1.688,3.457s-2.484,1.441-4.078,1.441c-1.578,0-2.934-0.48-4.066-1.441
		C0.567,31.676,0,30.523,0,29.18V4.898c0-1.344,0.566-2.496,1.699-3.457C2.832,0.48,4.188,0,5.766,0C7.36,0,8.719,0.48,9.844,1.441
		s1.688,2.113,1.688,3.457v5.414H7.688V2.789c0-0.531-0.188-0.984-0.563-1.359S6.297,0.867,5.766,0.867
		c-0.531,0-0.985,0.188-1.36,0.563S3.844,2.258,3.844,2.789v28.5c0,0.53,0.188,0.983,0.563,1.358s0.828,0.563,1.359,0.563
		c0.531,0,0.984-0.188,1.359-0.563s0.563-0.828,0.563-1.358V16.523H5.766v-0.866h5.766L11.531,29.18L11.531,29.18z"/>
	<path fill="#FFFFFF" d="M24.773,16.523h-3.75v-5.086c0-1.219-0.383-1.828-1.148-1.828c-0.5,0-1,0.273-1.5,0.82v22.547h1.219v0.867
		H13.43v-0.867h1.219V9.75H13.43V8.883h4.945v0.68c0.703-0.608,1.586-0.914,2.648-0.914c2.5,0,3.75,1.47,3.75,4.406V16.523z"/>
	<path fill="#FFFFFF" d="M38.18,33.844h-4.945v-0.68c-0.703,0.608-1.602,0.914-2.695,0.914c-2.656,0-3.984-1.47-3.984-4.406v-5.531
		c0-3.094,1.844-4.641,5.531-4.641h1.148v-8.063c0-1.28-0.469-1.922-1.406-1.922c-0.922,0-1.383,0.642-1.383,1.922v5.086h-3.75
		v-2.977c0-1.484,0.465-2.672,1.395-3.563c0.93-0.891,2.176-1.336,3.738-1.336c1.578,0,2.828,0.445,3.75,1.336
		c0.922,0.892,1.383,2.078,1.383,3.563v19.43h1.219L38.18,33.844L38.18,33.844z M33.234,32.297v-11.93h-1.102
		c-1.219,0-1.828,0.633-1.828,1.897v9.023c0,1.219,0.43,1.828,1.289,1.828C32.141,33.117,32.688,32.844,33.234,32.297z"/>
	<path fill="#FFFFFF" d="M50.602,29.672c0,2.938-1.359,4.406-4.078,4.406c-1.156,0-2.086-0.306-2.789-0.914v6.539h1.219v0.866H38.79
		v-0.866h1.219V9.75H38.79V8.883h4.945v0.68c0.703-0.608,1.633-0.914,2.789-0.914c2.719,0,4.078,1.47,4.078,4.406V29.672z
		 M46.852,31.289V11.438c0-1.219-0.461-1.828-1.383-1.828c-0.609,0-1.188,0.273-1.734,0.82v21.867
		c0.547,0.547,1.125,0.82,1.734,0.82C46.391,33.117,46.852,32.508,46.852,31.289z"/>
	<path fill="#FFFFFF" d="M65.227,33.844h-4.945V11.438c0-1.219-0.461-1.828-1.383-1.828c-0.609,0-1.188,0.273-1.734,0.82v22.547
		h1.219v0.867H52.22v-0.867h1.219V1.102H52.22V0.234h4.945v9.328c0.703-0.608,1.633-0.914,2.789-0.914
		c2.719,0,4.078,1.47,4.078,4.406v19.922h1.195V33.844z"/>
	<path fill="#FFFFFF" d="M72.258,33.844h-6.141v-0.867h1.195V9.75h-1.195V8.883h4.945v24.094h1.195L72.258,33.844L72.258,33.844z
		 M71.063,6h-3.75V0.234h3.75V6z"/>
	<path fill="#FFFFFF" d="M84.82,29.18c0,1.375-0.512,2.535-1.535,3.48c-1.023,0.944-2.316,1.418-3.879,1.418
		c-1.563,0-2.859-0.474-3.891-1.418c-1.032-0.945-1.547-2.105-1.547-3.48V13.547c0-1.375,0.516-2.535,1.547-3.48
		c1.031-0.944,2.328-1.418,3.891-1.418c1.563,0,2.854,0.474,3.879,1.418c1.024,0.945,1.535,2.105,1.535,3.48v2.977h-3.75v-5.086
		c0-1.28-0.555-1.922-1.664-1.922c-1.125,0-1.688,0.642-1.688,1.922V31.29c0,1.28,0.563,1.922,1.688,1.922
		c1.109,0,1.664-0.642,1.664-1.922v-5.086h3.75V29.18z"/>
	<path fill="#FFFFFF" d="M106.266,28.945c0,1.345-0.563,2.496-1.688,3.457s-2.484,1.441-4.078,1.441h-6.703v-0.867h1.195V1.102
		h-1.195V0.234h6.703c1.594,0,2.953,0.48,4.078,1.441s1.688,2.113,1.688,3.457V28.945z M102.422,31.055V3.023
		c0-0.53-0.188-0.983-0.563-1.358s-0.828-0.563-1.359-0.563h-1.664v31.875h1.664c0.531,0,0.984-0.188,1.359-0.563
		S102.422,31.586,102.422,31.055z"/>
	<path fill="#FFFFFF" d="M119.766,29.18c0,1.375-0.512,2.535-1.535,3.48c-1.022,0.944-2.315,1.418-3.879,1.418
		c-1.563,0-2.858-0.474-3.891-1.418c-1.031-0.945-1.547-2.105-1.547-3.48V13.547c0-1.375,0.516-2.535,1.547-3.48
		c1.031-0.944,2.328-1.418,3.891-1.418c1.563,0,2.855,0.474,3.879,1.418c1.024,0.945,1.535,2.105,1.535,3.48v8.203h-7.102v9.539
		c0,1.28,0.563,1.922,1.688,1.922c1.109,0,1.664-0.642,1.664-1.922v-5.086h3.75V29.18z M116.016,20.883v-9.445
		c0-1.28-0.555-1.922-1.664-1.922c-1.125,0-1.688,0.642-1.688,1.922v9.445H116.016z"/>
	<path fill="#FFFFFF" d="M132.422,29.18c0,1.391-0.461,2.547-1.383,3.469c-0.984,0.953-2.25,1.431-3.797,1.431
		s-2.813-0.474-3.797-1.418c-0.984-0.945-1.478-2.105-1.478-3.48v-2.977h3.75v5.086c0,1.28,0.509,1.922,1.523,1.922
		c0.969,0,1.452-0.642,1.452-1.922V27.61c0-1.547-0.438-2.75-1.313-3.608l-3.938-3.892c-0.984-0.969-1.478-2.391-1.478-4.266v-2.297
		c0-1.391,0.478-2.555,1.431-3.492c0.953-0.937,2.203-1.406,3.75-1.406s2.797,0.47,3.75,1.406c0.953,0.938,1.43,2.103,1.43,3.492
		v2.977H128.6v-5.086c0-1.28-0.484-1.922-1.453-1.922c-0.953,0-1.431,0.642-1.431,1.922v3.306c0,1.547,0.431,2.741,1.289,3.586
		l3.938,3.891c0.983,0.984,1.477,2.414,1.477,4.289v2.671H132.422z"/>
	<path fill="#FFFFFF" d="M140.203,33.844h-6.141v-0.867h1.194V9.75h-1.194V8.883h4.944v24.094h1.195L140.203,33.844L140.203,33.844z
		 M139.008,6h-3.75V0.234h3.75V6z"/>
	<path fill="#FFFFFF" d="M153.773,9.75h-1.195v26.156c0,1.375-0.484,2.534-1.453,3.479s-2.227,1.418-3.773,1.418
		c-1.453,0-2.715-0.479-3.785-1.441c-1.069-0.961-1.604-2.112-1.604-3.456v-0.867h3.75v2.977c0,1.281,0.547,1.922,1.642,1.922
		c0.983,0,1.477-0.641,1.477-1.922v-5.32c-0.703,0.609-1.633,0.914-2.789,0.914c-2.719,0-4.078-1.477-4.078-4.43V13.055
		c0-2.938,1.359-4.406,4.078-4.406c1.156,0,2.086,0.306,2.789,0.914v-0.68h4.945V9.75H153.773z M148.828,31.828V10.43
		c-0.547-0.547-1.125-0.82-1.734-0.82c-0.922,0-1.383,0.609-1.383,1.828V30.82c0,1.22,0.461,1.828,1.383,1.828
		C147.703,32.648,148.281,32.375,148.828,31.828z"/>
	<path fill="#FFFFFF" d="M167.625,33.844h-4.922V11.438c0-1.219-0.469-1.828-1.406-1.828c-0.609,0-1.188,0.273-1.734,0.82v22.547
		h1.22v0.867h-6.164v-0.867h1.219V9.75h-1.219V8.883h4.944v0.68c0.703-0.608,1.633-0.914,2.789-0.914
		c2.719,0,4.078,1.47,4.078,4.406v19.922h1.195V33.844z"/>
</g>
</svg>
