<?xml version="1.0" encoding="utf-8"?>
<!-- Generator: Adobe Illustrator 16.0.0, SVG Export Plug-In . SVG Version: 6.00 Build 0)  -->
<!DOCTYPE svg PUBLIC "-//W3C//DTD SVG 1.1//EN" "http://www.w3.org/Graphics/SVG/1.1/DTD/svg11.dtd">
<svg version="1.1" id="Layer_1" xmlns="http://www.w3.org/2000/svg" xmlns:xlink="http://www.w3.org/1999/xlink" x="0px" y="0px"
	 width="127.05px" height="40.57px" viewBox="0.003 0 127.05 40.57" enable-background="new 0.003 0 127.05 40.57"
	 xml:space="preserve">
<g>
	<path fill="#FFFFFF" d="M18.398,0.867H17.18l-2.25,32.742h-3.844L9.281,5.906L7.547,33.609H3.703L1.195,0.867H0V0h6.233v0.867
		H5.039l1.78,27.328L8.648,0h3.845l1.875,28.195l1.616-27.328h-1.194V0h3.608V0.867z"/>
	<path fill="#FFFFFF" d="M30.68,28.945c0,1.375-0.512,2.535-1.535,3.479c-1.022,0.945-2.315,1.418-3.879,1.418
		c-1.563,0-2.858-0.473-3.891-1.418c-1.032-0.944-1.547-2.104-1.547-3.479V13.313c0-1.375,0.516-2.535,1.547-3.48
		c1.031-0.944,2.328-1.418,3.891-1.418c1.563,0,2.855,0.474,3.879,1.418c1.024,0.945,1.535,2.105,1.535,3.48v8.203h-7.102v9.539
		c0,1.28,0.563,1.922,1.688,1.922c1.109,0,1.664-0.642,1.664-1.922v-5.087h3.75V28.945z M26.93,20.648v-9.445
		c0-1.281-0.555-1.922-1.664-1.922c-1.125,0-1.688,0.641-1.688,1.922v9.445H26.93z"/>
	<path fill="#FFFFFF" d="M44.063,29.437c0,2.938-1.358,4.405-4.078,4.405c-1.155,0-2.086-0.305-2.789-0.913v0.68H32.25v-0.867h1.219
		V0.867H32.25V0h4.944v9.328c0.703-0.609,1.634-0.914,2.789-0.914c2.72,0,4.078,1.469,4.078,4.406L44.063,29.437L44.063,29.437z
		 M40.313,31.054V11.203c0-1.219-0.461-1.828-1.383-1.828c-0.609,0-1.188,0.273-1.734,0.82v21.867
		c0.548,0.547,1.125,0.819,1.734,0.819C39.852,32.882,40.313,32.273,40.313,31.054z"/>
	<path fill="#FFFFFF" d="M65.695,28.71c0,1.345-0.563,2.496-1.688,3.457s-2.484,1.441-4.078,1.441h-6.703v-0.867h1.195V0.867h-1.195
		V0h6.703c1.594,0,2.953,0.48,4.078,1.441s1.688,2.113,1.688,3.457V28.71z M61.852,30.82V2.789c0-0.531-0.188-0.983-0.563-1.358
		s-0.828-0.563-1.359-0.563h-1.664v31.875h1.664c0.531,0,0.984-0.188,1.359-0.563S61.852,31.351,61.852,30.82z"/>
	<path fill="#FFFFFF" d="M79.195,28.945c0,1.375-0.512,2.535-1.534,3.479c-1.023,0.945-2.316,1.418-3.879,1.418
		c-1.563,0-2.859-0.473-3.892-1.418c-1.032-0.944-1.547-2.104-1.547-3.479V13.313c0-1.375,0.516-2.535,1.547-3.48
		c1.031-0.944,2.328-1.418,3.892-1.418c1.563,0,2.854,0.474,3.879,1.418c1.023,0.945,1.534,2.105,1.534,3.48v8.203h-7.102v9.539
		c0,1.28,0.563,1.922,1.688,1.922c1.108,0,1.663-0.642,1.663-1.922v-5.087h3.75V28.945z M75.445,20.648v-9.445
		c0-1.281-0.555-1.922-1.663-1.922c-1.125,0-1.688,0.641-1.688,1.922v9.445H75.445z"/>
	<path fill="#FFFFFF" d="M91.852,28.945c0,1.391-0.461,2.547-1.383,3.469c-0.984,0.953-2.25,1.43-3.797,1.43
		s-2.813-0.473-3.797-1.418c-0.984-0.944-1.478-2.104-1.478-3.479v-2.978h3.75v5.087c0,1.28,0.509,1.922,1.523,1.922
		c0.969,0,1.453-0.642,1.453-1.922v-3.681c0-1.547-0.438-2.75-1.313-3.608l-3.938-3.891c-0.984-0.969-1.478-2.391-1.478-4.266
		v-2.297c0-1.392,0.478-2.556,1.431-3.492c0.952-0.938,2.202-1.406,3.75-1.406c1.547,0,2.797,0.469,3.75,1.406
		c0.952,0.937,1.43,2.102,1.43,3.492v2.977h-3.728v-5.086c0-1.281-0.483-1.922-1.452-1.922c-0.953,0-1.431,0.641-1.431,1.922v3.305
		c0,1.548,0.431,2.742,1.289,3.587l3.938,3.89c0.983,0.983,1.477,2.414,1.477,4.289v2.671H91.852z"/>
	<path fill="#FFFFFF" d="M99.633,33.609h-6.141v-0.867h1.194V9.516h-1.194V8.648h4.944v24.093h1.195L99.633,33.609L99.633,33.609z
		 M98.438,5.766h-3.75V0h3.75V5.766z"/>
	<path fill="#FFFFFF" d="M113.203,9.516h-1.195v26.155c0,1.375-0.484,2.535-1.453,3.48s-2.227,1.418-3.772,1.418
		c-1.453,0-2.716-0.48-3.785-1.441c-1.07-0.961-1.605-2.112-1.605-3.457v-0.866h3.75v2.977c0,1.281,0.547,1.922,1.642,1.922
		c0.983,0,1.477-0.641,1.477-1.922v-5.32c-0.703,0.609-1.633,0.914-2.789,0.914c-2.719,0-4.078-1.477-4.078-4.43V12.82
		c0-2.938,1.359-4.406,4.078-4.406c1.156,0,2.086,0.305,2.789,0.914v-0.68h4.945v0.868H113.203z M108.258,31.593V10.195
		c-0.547-0.547-1.125-0.82-1.734-0.82c-0.922,0-1.383,0.609-1.383,1.828v19.382c0,1.22,0.461,1.828,1.383,1.828
		C107.133,32.414,107.711,32.14,108.258,31.593z"/>
	<path fill="#FFFFFF" d="M127.055,33.609h-4.922V11.203c0-1.219-0.469-1.828-1.406-1.828c-0.608,0-1.188,0.273-1.733,0.82v22.546
		h1.219v0.867h-6.164v-0.867h1.219V9.516h-1.219V8.648h4.945v0.68c0.702-0.609,1.633-0.914,2.789-0.914
		c2.719,0,4.077,1.469,4.077,4.406v19.921h1.195V33.609z"/>
</g>
</svg>
